<svg width="40" height="33" viewBox="0 0 40 33" fill="none" xmlns="http://www.w3.org/2000/svg">
<path d="M29 14.4H25.7778V6.4H22.5556V11.2H6.44444V6.4H3.22222V28.8H15.6479V32H3.22222C2.33611 32 1.57755 31.6867 0.946528 31.06C0.315509 30.4333 0 29.68 0 28.8V6.4C0 5.52 0.315509 4.76667 0.946528 4.14C1.57755 3.51333 2.33611 3.2 3.22222 3.2H9.94861C10.244 2.26667 10.8213 1.5 11.6806 0.9C12.5398 0.3 13.4796 0 14.5 0C15.5741 0 16.534 0.3 17.3799 0.9C18.2257 1.5 18.7963 2.26667 19.0917 3.2H25.7778C26.6639 3.2 27.4225 3.51333 28.0535 4.14C28.6845 4.76667 29 5.52 29 6.4V14.4ZM14.5 6.4C14.9565 6.4 15.3391 6.24667 15.6479 5.94C15.9567 5.63333 16.1111 5.25333 16.1111 4.8C16.1111 4.34667 15.9567 3.96667 15.6479 3.66C15.3391 3.35333 14.9565 3.2 14.5 3.2C14.0435 3.2 13.6609 3.35333 13.3521 3.66C13.0433 3.96667 12.8889 4.34667 12.8889 4.8C12.8889 5.25333 13.0433 5.63333 13.3521 5.94C13.6609 6.24667 14.0435 6.4 14.5 6.4Z" fill="#616161"/>
<path d="M20.4444 30.5556H22.1861L34.1333 18.6083L32.3917 16.8667L20.4444 28.8139V30.5556ZM18 33V27.8056L34.1333 11.7028C34.3778 11.4787 34.6477 11.3056 34.9431 11.1833C35.2384 11.0611 35.5491 11 35.875 11C36.2009 11 36.5167 11.0611 36.8222 11.1833C37.1278 11.3056 37.3926 11.4889 37.6167 11.7333L39.2972 13.4444C39.5417 13.6685 39.7199 13.9333 39.8319 14.2389C39.944 14.5444 40 14.85 40 15.1556C40 15.4815 39.944 15.7921 39.8319 16.0875C39.7199 16.3829 39.5417 16.6528 39.2972 16.8972L23.1944 33H18ZM33.2472 17.7528L32.3917 16.8667L34.1333 18.6083L33.2472 17.7528Z" fill="#616161"/>
</svg>
